<svg id="Layer_1" data-name="Layer 1" width="140px" height="40px" xmlns="http://www.w3.org/2000/svg" viewBox="0 0 86.4 17.91"><defs><style>.cls-1{fill:none;stroke:#fff;stroke-miterlimit:10;stroke-width:0.5px;}.cls-2{fill:#fff;}</style></defs><title>unfyd-white-logo3</title><g id="Layer_2" data-name="Layer 2"><g id="Layer_1-2" data-name="Layer 1-2"><circle class="cls-1" cx="84.15" cy="2.38" r="2"></circle><path class="cls-2" d="M83.93,2.34v.73H84v.08h-.5a.11.11,0,0,0,0-.08V1.34h-.1V1.19h.74a.8.8,0,0,1,.52.13.45.45,0,0,1,.17.39.63.63,0,0,1-.11.35.87.87,0,0,1-.34.22.36.36,0,0,1,.16.11.6.6,0,0,1,.14.21l.13.24L85,3l.09.08h.11v.08h-.41L84.68,3l-.1-.19-.13-.24a1,1,0,0,0-.1-.17.11.11,0,0,0-.06-.07h-.36Zm0-1v.87h.38l.15-.07A.28.28,0,0,0,84.57,2a.45.45,0,0,0,0-.23.49.49,0,0,0,0-.24.32.32,0,0,0-.14-.14.62.62,0,0,0-.27,0ZM13.44,11.61a10.2,10.2,0,0,1-.26,2.4,5.76,5.76,0,0,1-.74,1.73,4.93,4.93,0,0,1-1.13,1.15,5.78,5.78,0,0,1-1.64.74,8.24,8.24,0,0,1-2.26.28,9.79,9.79,0,0,1-2.69-.35,4.39,4.39,0,0,1-1.86-1.15A4.79,4.79,0,0,1,1.8,14.57a10.27,10.27,0,0,1-.32-2.76V3.26a10.39,10.39,0,0,0-.06-1.37,2.31,2.31,0,0,0-.19-.56A1.11,1.11,0,0,0,.87,1,3.48,3.48,0,0,0,0,.65V0H5.45V.65a2.75,2.75,0,0,0-1,.41,1.24,1.24,0,0,0-.39.68A7.71,7.71,0,0,0,4,3.26v9.25a7.54,7.54,0,0,0,.26,2.11A3.17,3.17,0,0,0,5,15.9a3,3,0,0,0,1.14.69,5.75,5.75,0,0,0,1.65.21,4,4,0,0,0,1.6-.29,3.08,3.08,0,0,0,1.15-1,4.19,4.19,0,0,0,.63-1.6,15.42,15.42,0,0,0,.17-2.54V3.26a6.63,6.63,0,0,0-.12-1.54,1.21,1.21,0,0,0-.36-.64,2.79,2.79,0,0,0-1-.43V0H15V.65a2.62,2.62,0,0,0-1,.43,1.22,1.22,0,0,0-.38.68,7.57,7.57,0,0,0-.1,1.5Zm14.62-.89c.31.52.57,1,.78,1.36s.43.83.66,1.31h.17q-.08-.81-.12-3.15c0-1.57-.05-3-.05-4.25V3.26A9.51,9.51,0,0,0,29.45,2a1.77,1.77,0,0,0-.19-.63A1,1,0,0,0,28.88,1,4.52,4.52,0,0,0,28,.65V0h4.68V.65a3.41,3.41,0,0,0-.83.29,1.07,1.07,0,0,0-.39.34,1.4,1.4,0,0,0-.22.62,6.9,6.9,0,0,0-.08,1.36V17.82H29.58L22.34,5.69,21.34,4c-.19-.34-.37-.69-.53-1h-.22c.06.66.1,1.87.13,3.61s0,3.48,0,5.22v2.64a9.07,9.07,0,0,0,.06,1.28,1.77,1.77,0,0,0,.19.63,1.24,1.24,0,0,0,.4.39,3.93,3.93,0,0,0,.87.31v.64H17.58v-.64a2.66,2.66,0,0,0,1.08-.46,1.32,1.32,0,0,0,.35-.72,8.52,8.52,0,0,0,.09-1.43V3.26A7.44,7.44,0,0,0,19,2a1.47,1.47,0,0,0-.21-.64,1.06,1.06,0,0,0-.4-.36A4.24,4.24,0,0,0,17.55.7V0h4.06ZM47.57,0V3.94H46.3a11.73,11.73,0,0,0-.55-1.43,3,3,0,0,0-.56-.83,1.52,1.52,0,0,0-.68-.4,3.38,3.38,0,0,0-1-.12h-3.8V8.22h2.67a1.87,1.87,0,0,0,.9-.19,1.54,1.54,0,0,0,.54-.62A7.4,7.4,0,0,0,44.19,6h1.22v5.5H44.19a5.69,5.69,0,0,0-.41-1.33,1.43,1.43,0,0,0-.53-.64,1.76,1.76,0,0,0-.9-.18H39.68v5.08a6.52,6.52,0,0,0,.09,1.25,1.66,1.66,0,0,0,.3.74,1.33,1.33,0,0,0,.55.41c.29.1.58.18.87.25v.64H35.73v-.64a2.66,2.66,0,0,0,1.08-.46,1.32,1.32,0,0,0,.35-.72,8.17,8.17,0,0,0,.09-1.4V3.26A7.43,7.43,0,0,0,37.18,2,1.64,1.64,0,0,0,37,1.32,1.06,1.06,0,0,0,36.6,1a4.24,4.24,0,0,0-.84-.31V0ZM54.68,10.3,51.1,3.64c-.43-.8-.76-1.38-1-1.73a3.71,3.71,0,0,0-.67-.81,2.18,2.18,0,0,0-.78-.45V0h5.53V.65C53.38.75,53,1.1,53,1.71a2.43,2.43,0,0,0,.18.84,11.37,11.37,0,0,0,.63,1.32l2.59,5L59,4.35a9.54,9.54,0,0,0,.73-1.51A3.06,3.06,0,0,0,60,1.76,1,1,0,0,0,59.64,1a1.32,1.32,0,0,0-.83-.32V0h4.92V.65a2.8,2.8,0,0,0-.93.54,4.84,4.84,0,0,0-.82.93c-.28.39-.68,1-1.22,2l-3.61,6.16v4.23a6.92,6.92,0,0,0,.08,1.2,2.13,2.13,0,0,0,.26.73,1.3,1.3,0,0,0,.48.42,3.88,3.88,0,0,0,.93.3v.64h-6v-.64a4.09,4.09,0,0,0,.92-.28,1.3,1.3,0,0,0,.48-.42,2,2,0,0,0,.27-.74,7,7,0,0,0,.08-1.21Zm10.47,7.44V17.1a4.17,4.17,0,0,0,.86-.3,1.16,1.16,0,0,0,.4-.36,1.8,1.8,0,0,0,.21-.63,9.43,9.43,0,0,0,.06-1.3V3.26A9.5,9.5,0,0,0,66.62,2a1.58,1.58,0,0,0-.22-.63A.94.94,0,0,0,66,1,4.42,4.42,0,0,0,65.14.7V0h5.69a12.31,12.31,0,0,1,4,.54,6.89,6.89,0,0,1,2.67,1.6,6.73,6.73,0,0,1,1.61,2.61,11.62,11.62,0,0,1,.53,3.75,13.64,13.64,0,0,1-.5,3.86,7.9,7.9,0,0,1-1.46,2.8,7.46,7.46,0,0,1-2,1.62,8.2,8.2,0,0,1-2.31.74,22.52,22.52,0,0,1-3.48.22Zm4-1.21c.51,0,1,0,1.53,0a9.6,9.6,0,0,0,2-.18,6.21,6.21,0,0,0,1.56-.57,4.66,4.66,0,0,0,1.26-1.08,6.32,6.32,0,0,0,.9-1.6,9.35,9.35,0,0,0,.52-2A17.74,17.74,0,0,0,77,8.73a10.68,10.68,0,0,0-.76-4.33A5.11,5.11,0,0,0,74.1,1.93a6.47,6.47,0,0,0-3.31-.78c-.59,0-1.14,0-1.67.05Z" transform="translate(0 0)"></path></g></g></svg>